<svg xmlns="http://www.w3.org/2000/svg" viewBox="0 0 512 512">
  <!-- Maskable: safe area is inner 80% (51.2px padding each side) -->
  <rect width="512" height="512" fill="#2563EB"/>
  <g transform="translate(256,256) scale(6.5)" fill="none" stroke="#fff" stroke-width="2" stroke-linecap="round" stroke-linejoin="round">
    <path d="M21 16V8a2 2 0 00-1-1.73l-7-4a2 2 0 00-2 0l-7 4A2 2 0 003 8v8a2 2 0 001 1.73l7 4a2 2 0 002 0l7-4A2 2 0 0021 16z" transform="translate(-12,-12)"/>
    <path d="M3.27 6.96L12 12.01l8.73-5.05M12 22.08V12" transform="translate(-12,-12)"/>
  </g>
</svg>
